<svg width="218" height="204" viewBox="0 0 218 204" fill="none" xmlns="http://www.w3.org/2000/svg">
<path d="M208.916 161.5C208.916 166.009 207.002 170.333 203.595 173.521C200.189 176.709 195.568 178.5 190.75 178.5H27.2497C22.4316 178.5 17.8108 176.709 14.4039 173.521C10.997 170.333 9.08301 166.009 9.08301 161.5V68C9.08301 63.4913 10.997 59.1673 14.4039 55.9792C17.8108 52.7911 22.4316 51 27.2497 51H63.583L81.7497 25.5H136.25L154.416 51H190.75C195.568 51 200.189 52.7911 203.595 55.9792C207.002 59.1673 208.916 63.4913 208.916 68V161.5Z" stroke="white" stroke-width="4" stroke-linecap="round" stroke-linejoin="round"/>
<path d="M109 144.5C129.066 144.5 145.333 129.278 145.333 110.5C145.333 91.7223 129.066 76.5 109 76.5C88.9333 76.5 72.6663 91.7223 72.6663 110.5C72.6663 129.278 88.9333 144.5 109 144.5Z" stroke="white" stroke-width="4" stroke-linecap="round" stroke-linejoin="round"/>
</svg>
