<svg width="252" height="198" viewBox="0 0 252 198" fill="none" xmlns="http://www.w3.org/2000/svg">
<path d="M99.2841 8.15948C93.2462 16.4439 91.3634 19.2625 85.4449 28.8776L82.3301 33.9801L80.6208 32.1522L78.9181 30.2869L80.9348 27.0967C82.5647 24.5302 83.1071 23.0061 83.4628 19.7314C83.7193 17.4358 84.4855 12.5925 85.1136 8.95322C85.7482 5.27646 86.2597 2.31253 86.1083 2.38053C86.0326 2.41453 84.5542 4.913 82.7709 7.96369C79.1979 14.1026 77.273 20.4009 77.4629 25.3685C77.5305 26.9994 77.5115 28.3231 77.3731 28.316C77.3039 28.3125 76.7522 27.8681 76.22 27.3112C75.4497 26.5152 75.3064 24.9183 75.6791 20.7362C76.1615 14.7052 76.2113 14.8213 71.0139 8.12314C69.6377 6.38793 69.1722 5.03963 69.1564 3.10862C69.1098 -0.262131 68.0656 0.933744 67.2453 5.28231C66.5091 9.14315 66.9212 12.4189 68.7264 16.5225C69.4602 18.3386 70.0382 19.844 69.9625 19.878C69.8868 19.912 67.596 18.6223 64.8032 17.0044C60.096 14.3429 38.0122 3.94809 37.4888 4.14858C37.0412 4.31506 49.5459 14.7908 53.4724 17.5261C57.2042 20.1758 63.553 23.0342 70.1763 25.1117C73.6891 26.1986 77.1784 28.2304 77.0295 29.0933C76.9906 29.3184 75.7339 28.914 74.1829 28.1917C69.0649 25.8879 63.5535 24.2453 56.3854 22.897C49.1482 21.5452 38.1237 19.8874 35.7013 19.7643C34.103 19.7209 56.6073 26.4659 63.5786 28.1448C66.1937 28.7697 70.5694 29.7112 73.418 30.1966L78.5615 31.1392L80.5804 34.0047C81.6991 35.6133 82.4544 36.9006 82.2468 36.89C82.0391 36.8795 77.302 35.2006 71.7234 33.1382C66.1447 31.0759 59.6166 28.8518 57.2156 28.1999C52.7403 27.0263 23.3024 21.2157 22.8418 21.4573C22.6147 21.5593 39.4995 26.8833 54.6322 31.437C57.9503 32.4383 65.8194 34.5792 72.2435 36.1925C83.7464 39.1235 85.5115 39.8188 85.3715 41.4391C85.3261 41.7017 81.649 40.7579 77.2061 39.3967C65.5992 35.8548 62.4305 35.2017 49.4616 33.4829C36.6312 31.7712 30.8538 30.4557 17.5575 26.1845C13.3914 24.8374 9.80944 23.747 9.6018 23.7365C9.39417 23.7259 11.2524 24.6908 13.7011 25.875C19.5092 28.6302 26.4959 31.029 34.8689 33.082C38.4833 33.9848 44.4598 35.7645 48.0851 37.0085C57.3712 40.2432 70.5805 42.9961 83.0539 44.3491L87.5074 44.8403L88.6435 46.7526C89.2927 47.8453 89.6218 48.7703 89.4639 48.8759C89.2434 48.9404 82.3153 47.415 74.0743 45.4066C57.1142 41.3277 49.5936 39.9993 36.2702 38.7167C31.1875 38.2313 22.4061 37.3309 16.7826 36.7423C5.59824 35.6062 5.05103 35.5406 5.42744 35.7868C5.55292 35.8689 12.362 37.2746 20.5358 38.8633C28.7096 40.4519 38.5684 42.3911 42.4791 43.1954C53.5448 45.423 66.8383 47.6882 79.1086 49.4093C85.3097 50.2922 90.6673 51.2078 91.0372 51.4916C91.8528 52.025 95.3025 58.3316 94.9241 58.5016C94.7727 58.5696 87.7969 56.512 79.3762 53.9267C71.0246 51.345 60.9752 48.4878 57.084 47.571C50.98 46.1253 5.11907 38.3826 4.5071 38.6921C4.12866 38.8621 40.2272 48.1525 57.9854 52.4612C66.8299 54.6138 79.1265 57.396 85.3385 58.62C95.5304 60.6518 96.7309 60.9778 97.1357 61.8688C97.3911 62.4117 98.233 64.0062 98.9623 65.4436L100.259 68.0452L96.4821 66.8693C94.4337 66.1974 87.6914 64.0003 81.6218 61.9509C62.8096 55.6584 58.5917 54.6114 36.9666 50.8632C28.5592 49.414 18.2592 47.6038 13.9896 46.8569C9.78912 46.1136 6.19215 45.5145 6.04078 45.5825C5.8894 45.6505 8.67325 46.5111 12.2747 47.4889C15.8069 48.4632 25.6617 51.2348 34.0456 53.6289C58.0033 60.4478 67.4946 62.8982 85.1662 66.8997L101.624 70.6504L103.382 74.2216C104.297 76.1983 104.981 77.8984 104.761 77.9629C104.603 78.0684 94.4087 75.2416 82.1724 71.7056C60.6848 65.5421 59.6098 65.2982 50.0821 63.8678C39.6611 62.3542 35.4433 61.3072 14.9506 55.0429C1.68459 51.0003 0.0255329 50.4997 -0.000368554 50.6498C-0.0133193 50.7248 2.13467 51.6288 4.7542 52.6324C7.29803 53.67 11.5378 55.3993 13.9994 56.5084C20.1601 59.2437 27.0647 61.7141 35.2907 64.2137C39.1431 65.3556 43.095 66.7297 44.1875 67.2773C48.1742 69.2587 55.1913 71.8861 61.1678 73.6659C68.414 75.7751 76.3175 77.3122 93.065 79.7907C99.8004 80.8142 105.712 81.758 106.239 81.9362C106.698 82.1109 107.767 83.6035 108.596 85.273C110.029 88.2979 110.029 88.2979 108.551 87.9579C107.74 87.8031 96.7155 84.9342 84.0186 81.6396C60.7619 75.6133 58.0711 75.0224 39.537 72.3774C35.9963 71.8568 26.5508 70.3549 18.5457 69.0019C10.5342 67.6865 3.87449 66.6289 3.71664 66.7344C3.56527 66.8024 4.77222 67.0909 6.45717 67.4414C11.8646 68.4732 30.5723 72.9437 37.1025 74.7516C40.6347 75.7259 46.5594 77.8058 50.2649 79.3944C63.7737 85.266 71.9779 87.0832 109.844 92.6031C111.819 92.8927 112.057 93.1318 113.258 95.88C113.955 97.505 114.484 98.8944 114.339 98.9249C114.187 98.9929 111.289 98.3914 107.794 97.6082C97.5842 95.2727 85.0282 92.7801 78.7708 91.8187C75.5697 91.3533 65.3349 90.379 56.0302 89.679C42.1705 88.6719 38.1951 88.2428 34.4294 87.408C27.8409 85.9378 18.8058 82.8672 11.7409 79.7074C8.37501 78.1739 5.43533 77.0026 5.27749 77.1082C4.0665 77.6522 17.6126 84.926 24.8936 87.6425C32.1118 90.318 37.2424 91.3357 49.3135 92.5925C62.8943 94.0018 68.4337 95.0781 75.3124 97.6985C80.0928 99.531 85.684 100.307 101.287 101.327L115.921 102.298L117.743 106.705C118.72 109.139 119.402 111.255 119.231 111.436C118.978 111.688 114.427 110.548 83.4268 102.463C66.3865 98.0397 58.9028 96.9024 29.4811 94.2339C17.1699 93.1541 6.98492 92.2959 6.84002 92.3264C6.46806 92.4589 6.60001 92.5034 18.7104 94.7463C31.1604 97.0443 42.7713 99.7538 58.8491 104.091C82.3243 110.469 84.7577 110.933 107.697 113.537C114.755 114.312 120.692 115.106 120.88 115.229C121.369 115.632 123.355 121.524 123.045 121.697C122.894 121.765 111.197 118.748 97.1045 115.042C68.3991 107.414 68.531 107.459 52.0603 104.995C45.5261 104.019 32.3451 101.911 22.919 100.297C13.4237 98.6787 5.28021 97.3186 4.93415 97.301C4.51241 97.3175 8.13327 98.1827 12.9048 99.2578C35.0278 104.167 48.6852 107.964 56.4725 111.388C71.7833 118.146 80.219 120.24 111.443 125.006L125.323 127.111L126.596 130.658C127.304 132.624 127.73 134.198 127.592 134.191C127.453 134.184 123.274 132.911 118.228 131.406C104.434 127.185 99.9395 126.124 87.1046 124.034C65.1075 120.418 64.0758 120.328 33.3026 118.612C15.3963 117.589 5.83217 117.179 7.31597 117.481C8.59861 117.735 13.2597 118.237 17.6005 118.571C31.9945 119.719 43.6637 122.091 61.1779 127.409C75.9018 131.904 89.9371 134.321 122.311 138.085C130.042 139.008 129.979 138.967 130.499 142.021L130.757 143.359L124.72 142.333C121.469 141.752 113.282 140.238 106.586 138.989C88.3955 135.567 83.955 135.001 64.5714 133.637C54.9142 132.957 41.9174 131.805 35.6969 131.034C24.6833 129.718 5.1738 127.061 1.65899 126.39C0.709452 126.229 0.0173373 126.193 0.205545 126.317C0.77017 126.686 24.1823 131.812 28.798 132.576C34.3005 133.461 44.8753 135.702 54.1157 137.988C75.3499 143.193 86.1234 144.686 117.122 146.716C125.47 147.291 132.365 147.793 132.491 147.875C132.686 147.961 134.957 154.624 134.911 154.886C134.905 154.924 132.768 154.361 130.172 153.624C127.583 152.849 122.63 151.613 119.141 150.792L112.829 149.336L92.8964 148.323C71.8562 147.254 59.182 147.064 34.9564 147.46C14.8596 147.801 13.9838 148.022 28.9962 148.823C40.894 149.465 45.7627 149.977 61.7121 152.226C68.2528 153.164 108.346 156.299 123.296 157.059C136.1 157.71 136.031 157.706 136.886 160.437C137.419 162.205 137.404 162.696 136.711 162.661C136.227 162.636 130.876 161.683 124.796 160.504C113.912 158.437 113.572 158.381 103.649 158.029C92.1276 157.632 90.0686 157.83 79.9735 160.497C74.0501 162.05 58.8213 166.953 53.9534 168.863L51.7022 169.771L54.2541 169.143C55.6404 168.797 61.9163 167.224 68.1231 165.647C83.6053 161.703 85.608 161.426 94.6055 161.884C100.142 162.165 103.287 162.552 107.94 163.507C113.341 164.577 115.398 164.795 126.333 165.35L138.653 165.977L139.086 167.512C139.359 168.359 139.692 169.663 139.984 170.397C140.207 171.127 140.361 171.854 140.342 171.966C140.322 172.079 137.919 171.843 135.058 171.433C126.813 170.257 112.882 169.663 105.604 170.163C97.6213 170.704 95.9453 171.111 91.0366 173.662C85.6673 176.455 84.3741 177.07 81.7077 177.956L79.4824 178.714L82.5253 178.074C91.4203 176.293 100.272 175.569 108.716 175.999C112.315 176.181 119.321 176.045 127.561 175.632C134.819 175.243 140.918 175.099 141.169 175.263C141.665 175.629 145.517 189.715 146.531 194.762C146.869 196.445 147.252 197.864 147.378 197.947C147.754 198.193 153.249 194.271 153.352 193.671C153.43 193.22 145.584 170.719 144.662 168.78C144.463 168.316 146.476 168.38 157.795 169.144C167.798 169.842 173.348 170.048 179.648 169.952C196.661 169.681 197.586 169.577 216.7 165.628C226.332 163.62 234.246 161.865 234.271 161.715C234.291 161.602 233.737 161.574 233.088 161.692C226.923 162.628 198.764 165.587 195.189 165.671C192.665 165.731 184.749 165.481 177.481 165.111C165.646 164.51 163.343 164.506 154.101 165.059C148.461 165.377 143.802 165.671 143.733 165.667C143.456 165.653 142.116 161.687 142.207 161.161C142.252 160.899 151.999 158.631 163.881 156.132C175.693 153.628 187.973 150.846 191.061 149.943C194.294 149.01 203.039 145.67 211.326 142.155C219.316 138.738 231.052 133.847 237.427 131.295C254.907 124.273 255.305 123.99 241.7 128.787C233.007 131.827 223.688 134.041 207.556 136.892C193.661 139.327 186.817 141.364 157.639 151.84L140.743 157.908L139.756 155.133C139.185 153.59 138.576 151.856 138.265 151.234C138.022 150.616 137.836 150.077 137.849 150.002C137.868 149.89 157.347 144.635 167.87 141.915C183.58 137.869 194.87 133.939 201.282 130.366C207.315 126.964 228.536 114.039 228.595 113.701C228.621 113.551 221.078 116.801 211.844 120.949L194.979 128.456L178.7 131.754C160.179 135.506 155.452 137.007 143.87 142.625C140.06 144.475 136.736 145.934 136.548 145.811C136.046 145.482 133.108 137.423 133.162 136.707C133.272 136.069 144.126 133.858 161.032 130.97C169.737 129.482 180.686 127.124 185.684 125.675C187.739 125.098 194.901 122.435 201.711 119.791C208.527 117.109 219.586 112.903 226.294 110.443C242.989 104.327 244.648 103.617 234.683 106.744C225.228 109.745 215.451 111.784 199.68 114.162C184.558 116.421 176.442 118.544 147.881 127.879C139.302 130.66 132.086 132.829 131.828 132.703C131.238 132.484 129.945 129.049 130.386 128.92C131.42 128.595 151.106 123.35 158.12 121.549C170.029 118.483 180.555 115.347 185.208 113.464C187.384 112.591 192.329 110.231 196.172 108.193C206.601 102.781 219.598 96.2505 231.022 90.7377C236.586 88.0306 241.015 85.8334 240.807 85.8229C240.53 85.8088 236.551 87.4232 231.872 89.4562C221.314 93.9912 212.27 96.6351 192.752 100.904C181.286 103.425 172.642 106.581 146.003 118.133L128.873 125.551L127.681 122.349C127.01 120.574 126.414 118.765 126.423 118.311C126.388 117.704 128.922 116.773 139.593 113.606C155.418 108.885 155.721 108.749 173.491 101.666C181.215 98.5766 189.582 95.4064 192.16 94.629C197.914 92.8399 215.313 88.3119 228.418 85.1933C233.736 83.9118 237.97 82.8402 237.914 82.7616C237.224 82.3102 167.057 96.8731 159.929 98.9331C152.58 101.058 136.178 109.118 128.108 114.612C127.003 115.351 125.924 115.939 125.647 115.925C125.232 115.904 122.132 107.572 122.268 106.784C122.307 106.559 127.073 104.833 132.904 103.01C170.212 91.1293 176.52 88.1572 195.483 73.755C208.496 63.8948 219.345 54.833 218.238 54.7767C218.1 54.7697 213.807 57.3901 208.713 60.6131C201.668 65.0238 196.437 67.8236 187.247 72.1253C180.567 75.2299 170.738 79.9912 165.445 82.7499C156.706 87.2638 122.105 102.877 120.928 102.817C120.443 102.793 117.53 96.2107 117.971 96.0817C119.528 95.5553 154.959 82.8226 160.255 80.8588C169.063 77.5595 178.898 72.7607 183.742 69.3736C185.8 67.9643 193.087 62.9603 200.039 58.28C206.922 53.5961 213.489 49.1232 214.6 48.3471L216.589 46.9343L214.799 47.6003C213.834 47.9297 207.269 50.7752 200.174 53.8587C193.148 56.9457 179.336 62.9428 169.529 67.1753C150.975 75.1642 142.976 79.0345 126.942 87.7949C121.774 90.6357 117.243 93.0169 116.884 93.0744C116.595 93.1354 115.727 91.6909 114.987 89.9123L113.662 86.6659L129.43 78.2325C157.358 63.264 159.1 62.0658 170.912 50.6685C175.016 46.7139 181.117 40.8927 184.455 37.7318C193.895 28.7498 193.951 28.8284 184.216 35.0704C180.605 37.3848 170.341 43.8649 161.415 49.4668C142.47 61.3342 135.423 66.1611 123.73 75.2557C119.049 78.916 114.545 82.3583 113.825 82.8894L112.46 83.9177L110.142 79.1447L107.818 74.4092L122.364 66.1787C143.493 54.1952 143.335 54.3007 159.107 38.5631C164.755 32.946 169.555 28.1941 169.795 28.017C170.028 27.8775 170.054 27.7274 169.846 27.7169C169.293 27.6887 131.662 52.7613 126.23 56.7242C123.59 58.6716 118.189 62.863 114.284 66.0708C110.379 69.2786 106.95 71.7536 106.636 71.5485C106.071 71.1791 102.89 65.3404 102.974 64.8527C103.007 64.6651 109.656 60.1207 117.712 54.7017C125.832 49.3237 133.138 44.2072 134.061 43.308C134.985 42.4087 137.713 39.1411 140.201 36.0506C142.69 32.96 147.368 27.2937 150.684 23.4504C153.994 19.6447 156.723 16.3771 156.755 16.1895C156.781 16.0394 154.645 17.8989 151.983 20.3751C144.997 26.8704 138.958 31.5214 128.534 38.5232C118.356 45.3105 112.341 50.2277 106.103 56.8367C103.807 59.2179 101.777 61.272 101.474 61.408C101.083 61.6531 96.9474 55.2739 97.0639 54.5985C97.0898 54.4485 101.829 50.4505 107.68 45.6763C116.634 38.297 118.638 36.3929 121.141 32.8111C122.726 30.5073 126.509 25.1739 129.468 20.9719C132.497 16.7734 134.78 13.2561 134.654 13.174C134.529 13.0919 133.593 14.0662 132.473 15.2961C128.536 19.9026 123.535 24.6064 113.777 33.0046C104.525 40.8986 102.906 42.5951 95.7003 51.5772C95.3393 52.0508 91.981 47.6413 92.1235 46.8159C92.1494 46.6658 97.6025 42.1742 104.243 36.8725C112.096 30.6105 116.539 26.7109 116.997 25.6745C117.423 24.8257 120.497 20.3645 123.936 15.8085C127.307 11.2488 129.886 7.63305 129.583 7.76905C127.898 8.62962 107.622 27.8095 100.708 35.1033C96.2672 39.7977 92.2501 44.0595 91.7442 44.5636C90.8275 45.4254 90.7647 45.3844 88.9017 42.8296L87.0451 40.2374L95.7951 32.0151C101.946 26.31 105.192 22.8794 106.473 20.7116C107.47 18.9834 110.038 15.0264 112.042 11.9113C114.115 8.79962 115.745 6.23316 115.688 6.15461C115.243 5.90488 97.4755 25.5151 92.6632 31.5531C89.6366 35.3354 86.8455 38.5619 86.6055 38.739C86.3027 38.875 85.4568 38.1129 84.7319 37.0542L83.4638 35.0974L88.1361 30.6796C96.084 23.06 98.1615 20.327 99.665 15.2562C100.438 12.7976 102.109 8.37872 103.444 5.49452C104.786 2.57281 105.774 0.0872454 105.579 0.00165756C105.454 -0.080413 102.661 3.56235 99.2841 8.15948Z" fill="white"/>
</svg>
